# xmcd
#
# Track frame offsets: 
#        150
#        20035
#        41153
#        57790
#        80403
#        119231
#        142343
#        163938
#        184015
#        197685
#        229912
#        258498
#
# Disc length: 3697 seconds
#
# Revision: 1
# Processed by: cddbd v1.5.2PL0 Copyright (c) Steve Scherf et al.
# Submitted via: ExactAudioCopy v0.99pb5
#
DISCID=b70e6f0c
DTITLE=B.B. King and Eric Clapton - Riding With The King
DYEAR=2000
DGENRE=Blues
TTITLE0=Riding with the king
TTITLE1=Ten long years
TTITLE2=Key to the highway
TTITLE3=Marry you
TTITLE4=Three o´clock blues
TTITLE5=Help the poor
TTITLE6=I wanna be
TTITLE7=Worried life blues
TTITLE8=Days of old
TTITLE9=When my heart beats like a hammer
TTITLE10=Hold on I'm coming
TTITLE11=Come rain or come shine
EXTD=
EXTT0=
EXTT1=
EXTT2=
EXTT3=
EXTT4=
EXTT5=
EXTT6=
EXTT7=
EXTT8=
EXTT9=
EXTT10=
EXTT11=
PLAYORDER=
